<svg width="39" height="173" viewBox="0 0 39 173" fill="none" xmlns="http://www.w3.org/2000/svg">
<path d="M31.7098 45.3881C31.9083 46.4775 31.5688 47.5199 31.0229 48.4538C30.2627 49.7546 29.2104 50.8187 27.787 51.4894C26.5514 52.0711 25.2423 52.2812 23.9045 52.132C23.1428 52.0473 22.3689 51.8499 21.6892 51.4362C21.3483 51.2289 20.9988 51.0336 20.642 50.853C20.3414 50.7004 20.0961 50.8796 19.8523 51.0245C18.7029 51.7071 17.4953 52.2153 16.11 52.1502C15.5778 52.125 15.0268 52.1467 14.5212 52.0137C13.6703 51.7904 12.836 51.5048 12.0851 51.0126C11.3083 50.5036 10.6912 49.8547 10.164 49.121C9.63102 48.3796 9.21961 47.571 9.10165 46.6616C9.0175 46.0105 8.90098 45.3391 8.97866 44.6971C9.08295 43.8339 9.29082 42.9665 9.58067 42.1439C9.90865 41.2149 10.3121 40.2978 10.8027 39.4402C11.2954 38.5784 11.8887 37.7607 12.5231 36.9892C13.1467 36.231 13.8386 35.517 14.5708 34.8575C15.1592 34.3275 15.8302 33.8753 16.5049 33.4475C17.332 32.9238 18.2483 32.4856 19.2179 32.3988C20.3162 32.3008 21.4432 32.2308 22.5358 32.6515C23.7038 33.101 24.8086 33.6393 25.7343 34.4675C26.4665 35.1221 27.1793 35.804 27.8417 36.5251C28.3933 37.125 28.9227 37.7628 29.35 38.4496C29.8844 39.3093 30.3627 40.2124 30.7568 41.1407C31.1445 42.0529 31.4394 43.0092 31.6889 43.9677C31.8026 44.4038 31.7084 44.8918 31.7084 45.3881H31.7098ZM10.6322 45.2544C10.6322 45.5569 10.6042 45.8628 10.6394 46.1617C10.6826 46.5272 10.7113 46.9171 10.866 47.2427C11.2939 48.1416 11.7751 48.9957 12.6756 49.583C13.607 50.1907 14.6068 50.5533 15.7044 50.657C16.5603 50.7382 17.3716 50.4882 18.175 50.2201C18.7439 50.0304 18.8209 49.7868 18.413 49.3639C17.8427 48.7723 17.2781 48.1759 16.7243 47.5696C16.5034 47.3281 16.2834 47.076 16.123 46.796C15.6813 46.0259 15.2505 45.2488 14.8556 44.4556C14.5658 43.8732 14.4414 43.2284 14.5802 42.5948C14.8146 41.5237 15.5224 40.7263 16.3999 40.1039C16.817 39.8078 17.3471 39.5984 17.8564 39.5039C18.6914 39.3492 19.497 39.5718 20.273 39.9128C20.478 40.0031 20.7736 39.9674 21.0074 39.9107C21.4771 39.7973 21.9244 39.5438 22.3955 39.5004C23.6197 39.3891 24.6604 39.7812 25.5307 40.6724C26.4564 41.621 26.9318 42.683 26.5607 43.9691C26.3751 44.6124 26.0846 45.2453 25.7321 45.8201C25.284 46.551 24.7604 47.2462 24.2052 47.9049C23.6866 48.521 23.0961 49.0818 22.5113 49.6418C22.2754 49.868 22.261 50.057 22.5761 50.1991C23.1946 50.4784 23.8369 50.6906 24.5288 50.6591C25.0014 50.6374 25.4768 50.5954 25.9414 50.5127C27.2246 50.2852 28.2682 49.6341 29.0673 48.6526C30.0455 47.4499 30.3475 46.0434 30.1915 44.5368C30.1526 44.1595 30.1037 43.7723 29.9793 43.416C29.5887 42.2966 29.2435 41.1568 28.5818 40.1438C28.2589 39.6495 27.9978 39.1154 27.6554 38.6351C27.2979 38.1339 26.8599 37.6872 26.4859 37.1958C25.9119 36.4418 25.1977 35.8411 24.4274 35.2901C23.6564 34.7378 22.8105 34.3492 21.9108 34.0342C21.0182 33.7219 20.0954 33.7422 19.2352 33.9285C17.8822 34.2211 16.6904 34.9289 15.6634 35.8376C14.7384 36.656 13.8645 37.529 13.1597 38.5476C12.4181 39.6201 11.8103 40.7564 11.3097 41.9542C10.8667 43.0155 10.5351 44.0909 10.6308 45.2537L10.6322 45.2544ZM16.2071 43.1521C16.238 43.4391 16.2107 43.7485 16.3136 44.009C16.4811 44.4339 16.6969 44.8512 16.9594 45.2278C17.4572 45.9426 18.0131 46.6189 18.5245 47.3246C18.9992 47.9798 19.589 48.5077 20.3083 48.8857C20.473 48.9726 20.7535 48.9831 20.9196 48.9054C21.2462 48.7527 21.5583 48.5434 21.8259 48.304C22.7652 47.4632 23.5571 46.4971 24.2037 45.4273C24.513 44.9163 24.851 44.3856 24.9891 43.8206C25.2085 42.9196 25.0107 42.0592 24.2001 41.4516C23.6269 41.0224 22.9925 40.8411 22.2646 41.0763C21.7223 41.2513 21.2447 41.5048 20.8714 41.9311C20.7103 42.1152 20.5535 42.1033 20.3917 41.9269C20.296 41.8233 20.2047 41.705 20.086 41.635C19.7976 41.4642 19.5106 41.2464 19.1934 41.1799C18.7756 41.0924 18.3303 41.1225 17.8966 41.1232C17.7355 41.1232 17.542 41.1386 17.4183 41.2233C16.735 41.6903 16.0582 42.1754 16.2071 43.1507V43.1521Z" fill="#09ACFB"/>
<path d="M26.0621 22.0321C27.2633 21.8256 28.6787 23.0948 28.919 24.1022C29.0578 24.684 29.2865 25.2371 29.3009 25.8531C29.3253 26.8683 29.006 27.7882 28.5615 28.6745C27.9854 29.8233 27.1475 30.7908 26.1484 31.6022C25.1314 32.4283 23.785 32.4479 23.0161 31.4622C22.4572 30.7453 22.0746 29.9241 22.0156 28.9937C21.9789 28.4189 21.8703 27.8435 21.884 27.2708C21.9279 25.4709 22.5515 23.9076 24.0079 22.728C24.6099 22.24 25.286 21.9236 26.0614 22.0321H26.0621Z" fill="#09ACFB"/>
<path d="M19.0531 27.4482C18.9236 28.2904 18.8438 29.1431 18.6503 29.9713C18.4561 30.803 17.9699 31.501 17.2471 32.0015C16.8292 32.2907 16.3149 32.234 15.8611 32.1332C14.8038 31.8979 14.0881 31.179 13.4875 30.3522C13.0653 29.7704 12.6309 29.1879 12.2993 28.5564C11.9189 27.8319 11.6182 27.0786 11.665 26.2112C11.7052 25.467 11.6729 24.7123 11.9893 24.0283C12.4489 23.0356 13.1603 22.2914 14.3024 21.9785C15.031 21.7789 15.6589 21.9855 16.2243 22.3313C17.2988 22.988 18.1094 23.8687 18.5885 25.0588C18.9042 25.8429 18.9855 26.6193 18.9438 27.4342C18.9804 27.4391 19.0171 27.4433 19.0538 27.4482H19.0531Z" fill="#09ACFB"/>
<path d="M11.8982 34.8467C12.0068 35.5069 11.8392 36.1083 11.5299 36.6887C11.1976 37.3117 10.3388 37.7003 9.64333 37.5302C8.64285 37.2844 7.76968 36.8231 7.0641 36.0866C6.56135 35.5615 6.04133 35.0463 5.59755 34.4764C5.16384 33.9184 4.92505 33.2576 4.938 32.5435C4.94879 31.9904 4.93512 31.424 5.05164 30.8885C5.248 29.9903 6.41893 29.1747 7.34245 29.1439C8.77735 29.0956 9.73899 29.8264 10.5704 30.8563C11.1257 31.5437 11.4824 32.3131 11.7004 33.1413C11.8464 33.6951 11.8946 34.2727 11.9866 34.8397C11.9564 34.8425 11.9269 34.8446 11.8967 34.8474L11.8982 34.8467Z" fill="#09ACFB"/>
<path d="M29.0598 34.7985C28.9656 33.7323 29.195 32.7143 29.6949 31.7818C30.2768 30.696 31.1169 29.8349 32.3094 29.3343C33.1682 28.9738 34.6728 29.0641 35.2878 29.9392C35.8581 30.7506 36.1861 31.604 36.0351 32.575C35.9135 33.3535 35.6532 34.1019 35.1303 34.7285C34.7706 35.1597 34.4254 35.612 34.0082 35.9858C33.1739 36.7335 32.2504 37.3755 31.1125 37.5953C30.8169 37.6527 30.4192 37.5673 30.166 37.4042C29.4827 36.9645 29.0404 36.3464 29.0598 35.4965C29.0656 35.264 29.0605 35.0309 29.0605 34.7978L29.0598 34.7985Z" fill="#09ACFB"/>
<circle cx="19.5" cy="37.5" r="19" stroke="#09ACFB"/>
<line x1="19" y1="19" x2="19" y2="-1" stroke="#09ACFB" stroke-width="2"/>
<line x1="19" y1="57" x2="19" y2="173" stroke="#09ACFB" stroke-width="2"/>
</svg>
