<svg width="16" height="16" viewBox="0 0 16 16" fill="none" xmlns="http://www.w3.org/2000/svg">
<path d="M12.4726 5.47357C12.4106 5.41108 12.3369 5.36148 12.2556 5.32764C12.1744 5.29379 12.0872 5.27637 11.9992 5.27637C11.9112 5.27637 11.8241 5.29379 11.7428 5.32764C11.6616 5.36148 11.5879 5.41108 11.5259 5.47357L8.47256 8.52689C8.41058 8.58938 8.33685 8.63897 8.25561 8.67282C8.17437 8.70667 8.08723 8.72409 7.99923 8.72409C7.91122 8.72409 7.82408 8.70667 7.74284 8.67282C7.6616 8.63897 7.58787 8.58938 7.52589 8.52689L4.47256 5.47357C4.41058 5.41108 4.33685 5.36148 4.25561 5.32764C4.17437 5.29379 4.08723 5.27637 3.99923 5.27637C3.91122 5.27637 3.82408 5.29379 3.74284 5.32764C3.6616 5.36148 3.58787 5.41108 3.52589 5.47357C3.40173 5.59847 3.33203 5.76744 3.33203 5.94356C3.33203 6.11969 3.40173 6.28866 3.52589 6.41356L6.58589 9.47356C6.96089 9.84809 7.46922 10.0585 7.99923 10.0585C8.52923 10.0585 9.03756 9.84809 9.41256 9.47356L12.4726 6.41356C12.5967 6.28866 12.6664 6.11969 12.6664 5.94356C12.6664 5.76744 12.5967 5.59847 12.4726 5.47357Z" fill="#91989E"/>
</svg>
