<svg width="25" height="25" viewBox="0 0 25 25" fill="none" xmlns="http://www.w3.org/2000/svg">
<g clip-path="url(#clip0_311_12190)">
<path d="M23.353 1.64795C22.6732 0.969151 21.7517 0.587891 20.791 0.587891C19.8303 0.587891 18.9089 0.969151 18.229 1.64795L1.96502 17.912C1.49927 18.3751 1.12998 18.926 0.878513 19.5327C0.627049 20.1395 0.498402 20.7901 0.500015 21.447V23.5C0.500015 23.7652 0.605372 24.0195 0.792908 24.2071C0.980445 24.3946 1.2348 24.5 1.50002 24.5H3.55301C4.20978 24.5018 4.86038 24.3734 5.46717 24.1221C6.07396 23.8708 6.62487 23.5016 7.08801 23.036L23.353 6.77095C24.0315 6.09115 24.4126 5.16992 24.4126 4.20945C24.4126 3.24899 24.0315 2.32776 23.353 1.64795ZM5.67401 21.622C5.11002 22.1822 4.34798 22.4977 3.55301 22.5H2.50002V21.447C2.499 21.0529 2.57617 20.6625 2.72705 20.2984C2.87793 19.9343 3.09953 19.6038 3.37901 19.326L15.722 6.98295L18.022 9.28295L5.67401 21.622ZM21.938 5.35695L19.432 7.86395L17.132 5.56895L19.639 3.06195C19.79 2.91126 19.9693 2.79179 20.1664 2.71036C20.3636 2.62893 20.5749 2.58714 20.7883 2.58738C21.0016 2.58761 21.2128 2.62986 21.4098 2.71172C21.6069 2.79357 21.7858 2.91343 21.9365 3.06445C22.0872 3.21547 22.2067 3.3947 22.2881 3.59189C22.3695 3.78908 22.4113 4.00038 22.4111 4.21372C22.4109 4.42706 22.3686 4.63827 22.2868 4.83529C22.2049 5.0323 22.085 5.21126 21.934 5.36195L21.938 5.35695Z" fill="#374957"/>
</g>
<defs>
<clipPath id="clip0_311_12190">
<rect width="24" height="24" fill="white" transform="translate(0.5 0.5)"/>
</clipPath>
</defs>
</svg>
