<svg width="32" height="32" viewBox="0 0 32 32" fill="none" xmlns="http://www.w3.org/2000/svg">
<circle cx="16" cy="16" r="16" fill="#F0F8FF"/>
<path d="M25.1169 6.88339C24.5504 6.31772 23.7825 6 22.9819 6C22.1813 6 21.4134 6.31772 20.8469 6.88339L6 21.7301V26.0001H10.2701L25.1169 11.1534C25.6824 10.5867 26 9.81891 26 9.01839C26 8.21786 25.6824 7.45003 25.1169 6.88339V6.88339ZM9.58339 24.3334H7.66669V22.4167L18.7585 11.3334L20.6752 13.2501L9.58339 24.3334ZM23.9386 9.97505L21.8494 12.0642L19.9369 10.1476L22.0252 8.06172C22.2794 7.80755 22.6241 7.66476 22.9836 7.66476C23.343 7.66476 23.6878 7.80755 23.9419 8.06172C24.1961 8.31589 24.3389 8.66061 24.3389 9.02005C24.3389 9.3795 24.1961 9.72422 23.9419 9.97839L23.9386 9.97505Z" fill="#6C727F"/>
</svg>
