<svg width="20" height="19" viewBox="0 0 20 19" fill="none" xmlns="http://www.w3.org/2000/svg">
<path d="M14.5835 0.597168C13.6451 0.611764 12.7272 0.873712 11.9224 1.35656C11.1177 1.83941 10.4546 2.52606 10.0001 3.34717C9.54566 2.52606 8.88257 1.83941 8.07783 1.35656C7.27308 0.873712 6.35517 0.611764 5.41679 0.597168C3.92091 0.66216 2.51155 1.31655 1.49661 2.41736C0.481678 3.51818 -0.0563308 4.97594 0.000128003 6.47217C0.000128003 10.2613 3.98846 14.3997 7.33346 17.2055C8.08031 17.8331 9.02459 18.1772 10.0001 18.1772C10.9757 18.1772 11.9199 17.8331 12.6668 17.2055C16.0118 14.3997 20.0001 10.2613 20.0001 6.47217C20.0566 4.97594 19.5186 3.51818 18.5036 2.41736C17.4887 1.31655 16.0793 0.66216 14.5835 0.597168ZM11.596 15.9305C11.1493 16.3066 10.5841 16.5129 10.0001 16.5129C9.41617 16.5129 8.85097 16.3066 8.40429 15.9305C4.12263 12.338 1.66679 8.89133 1.66679 6.47217C1.60983 5.41776 1.9721 4.38361 2.6746 3.59525C3.37709 2.80689 4.36282 2.32829 5.41679 2.26383C6.47077 2.32829 7.45649 2.80689 8.15899 3.59525C8.86149 4.38361 9.22376 5.41776 9.16679 6.47217C9.16679 6.69318 9.25459 6.90514 9.41087 7.06142C9.56715 7.2177 9.77911 7.3055 10.0001 7.3055C10.2211 7.3055 10.4331 7.2177 10.5894 7.06142C10.7457 6.90514 10.8335 6.69318 10.8335 6.47217C10.7765 5.41776 11.1388 4.38361 11.8413 3.59525C12.5438 2.80689 13.5295 2.32829 14.5835 2.26383C15.6374 2.32829 16.6232 2.80689 17.3257 3.59525C18.0282 4.38361 18.3904 5.41776 18.3335 6.47217C18.3335 8.89133 15.8776 12.338 11.596 15.9272V15.9305Z" fill="black"/>
</svg>
