<svg width="24" height="24" viewBox="0 0 24 24" fill="none" xmlns="http://www.w3.org/2000/svg">
<g clip-path="url(#clip0_316_12167)">
<path d="M20.6368 18.6189C20.7899 19.4823 20.5281 20.3086 20.1072 21.0488C19.5211 22.0798 18.7098 22.9232 17.6124 23.4548C16.6597 23.916 15.6505 24.0824 14.6191 23.9642C14.0318 23.8971 13.4351 23.7406 12.9111 23.4127C12.6483 23.2484 12.3788 23.0936 12.1037 22.9504C11.8719 22.8295 11.6828 22.9715 11.4948 23.0864C10.6087 23.6274 9.67766 24.0303 8.60964 23.9787C8.19929 23.9587 7.77452 23.9759 7.38468 23.8705C6.72868 23.6934 6.08542 23.467 5.50649 23.077C4.9076 22.6735 4.43182 22.1591 4.02535 21.5776C3.61444 20.99 3.29725 20.3491 3.20631 19.6282C3.14143 19.1122 3.0516 18.58 3.11149 18.0712C3.19189 17.387 3.35215 16.6995 3.57563 16.0475C3.82849 15.3111 4.13958 14.5842 4.51777 13.9044C4.89762 13.2214 5.35511 12.5732 5.8442 11.9617C6.32498 11.3608 6.85843 10.7948 7.42295 10.2721C7.87655 9.85201 8.39392 9.49355 8.91407 9.1545C9.55178 8.73944 10.2583 8.39207 11.0058 8.32326C11.8525 8.24558 12.7215 8.19009 13.5638 8.52358C14.4643 8.87983 15.3161 9.30655 16.0298 9.96299C16.5943 10.4818 17.1438 11.0223 17.6546 11.5938C18.0799 12.0694 18.488 12.5749 18.8174 13.1193C19.2294 13.8007 19.5982 14.5165 19.9021 15.2523C20.2009 15.9753 20.4283 16.7333 20.6207 17.493C20.7083 17.8387 20.6357 18.2255 20.6357 18.6189H20.6368ZM4.38635 18.5129C4.38635 18.7526 4.36472 18.9951 4.39189 19.232C4.42516 19.5217 4.44734 19.8308 4.56657 20.0888C4.89651 20.8013 5.26749 21.4783 5.96176 21.9438C6.67988 22.4255 7.45067 22.7129 8.29688 22.7951C8.95677 22.8594 9.58228 22.6613 10.2017 22.4488C10.6403 22.2984 10.6997 22.1053 10.3852 21.7702C9.9455 21.3013 9.51019 20.8285 9.0832 20.348C8.91296 20.1565 8.74328 19.9567 8.61962 19.7348C8.27914 19.1244 7.94698 18.5085 7.64254 17.8798C7.41906 17.4181 7.32313 16.907 7.43015 16.4048C7.61093 15.5558 8.15659 14.9238 8.83311 14.4305C9.15474 14.1958 9.56343 14.0299 9.95603 13.9549C10.5998 13.8323 11.2209 14.0088 11.8192 14.279C11.9773 14.3506 12.2052 14.3223 12.3854 14.2773C12.7475 14.1874 13.0924 13.9866 13.4557 13.9522C14.3995 13.8639 15.2019 14.1747 15.8729 14.8811C16.5865 15.633 16.9531 16.4747 16.6669 17.4941C16.5239 18.0041 16.2998 18.5057 16.0281 18.9613C15.6826 19.5406 15.279 20.0916 14.8509 20.6137C14.451 21.1021 13.9958 21.5465 13.5449 21.9905C13.3631 22.1697 13.352 22.3195 13.5948 22.4322C14.0717 22.6536 14.5669 22.8217 15.1004 22.7967C15.4647 22.7795 15.8313 22.7462 16.1895 22.6808C17.1788 22.5004 17.9834 21.9844 18.5995 21.2064C19.3536 20.2531 19.5865 19.1383 19.4662 17.9441C19.4363 17.645 19.3985 17.3382 19.3026 17.0557C19.0015 16.1684 18.7353 15.2651 18.2252 14.4621C17.9762 14.0704 17.7749 13.647 17.5109 13.2663C17.2353 12.869 16.8976 12.515 16.6093 12.1254C16.1668 11.5278 15.6161 11.0517 15.0222 10.615C14.4278 10.1772 13.7756 9.86921 13.0819 9.61951C12.3937 9.37202 11.6823 9.38812 11.0191 9.53572C9.976 9.76767 9.05714 10.3287 8.26527 11.0489C7.55215 11.6976 6.8784 12.3896 6.33496 13.197C5.76324 14.0471 5.29466 14.9477 4.90871 15.8971C4.56712 16.7383 4.31148 17.5907 4.38524 18.5123L4.38635 18.5129ZM8.6845 16.8465C8.70834 17.074 8.68727 17.3193 8.76657 17.5257C8.89577 17.8626 9.06213 18.1933 9.26453 18.4918C9.64827 19.0584 10.0769 19.5944 10.4712 20.1537C10.8372 20.6731 11.2919 21.0915 11.8464 21.3912C11.9734 21.46 12.1897 21.4683 12.3178 21.4067C12.5695 21.2857 12.8102 21.1198 13.0165 20.93C13.7407 20.2636 14.3512 19.4978 14.8497 18.65C15.0882 18.2449 15.3488 17.8243 15.4553 17.3765C15.6244 16.6623 15.4719 15.9803 14.847 15.4987C14.405 15.1585 13.9159 15.0148 13.3547 15.2013C12.9366 15.34 12.5684 15.5409 12.2806 15.8788C12.1564 16.0247 12.0355 16.0153 11.9107 15.8755C11.837 15.7933 11.7666 15.6996 11.6751 15.6441C11.4527 15.5087 11.2314 15.3361 10.9869 15.2834C10.6647 15.214 10.3215 15.2379 9.98709 15.2384C9.86287 15.2384 9.7137 15.2506 9.61832 15.3178C9.09152 15.6879 8.56971 16.0724 8.6845 16.8454V16.8465Z" fill="#09ACFB"/>
<path d="M16.2866 0.104599C17.2127 -0.0590969 18.304 0.946938 18.4892 1.74544C18.5962 2.20656 18.7726 2.64493 18.7837 3.13325C18.8025 3.93785 18.5563 4.66699 18.2136 5.36949C17.7694 6.28009 17.1234 7.04696 16.3532 7.69009C15.5691 8.34487 14.531 8.36041 13.9382 7.57911C13.5073 7.01089 13.2123 6.35999 13.1668 5.62253C13.1386 5.16696 13.0548 4.71083 13.0654 4.25692C13.0992 2.83027 13.58 1.59118 14.7029 0.65617C15.167 0.269404 15.6883 0.0185892 16.2861 0.104599H16.2866Z" fill="#09ACFB"/>
<path d="M10.8815 4.3978C10.7816 5.06534 10.7201 5.74121 10.5709 6.39766C10.4212 7.05688 10.0463 7.61012 9.48904 8.00687C9.16686 8.23604 8.77037 8.1911 8.42046 8.11119C7.60531 7.92475 7.05355 7.35486 6.59052 6.69953C6.26501 6.2384 5.93008 5.77673 5.67444 5.27621C5.38109 4.70188 5.1493 4.10481 5.18534 3.41729C5.2164 2.82743 5.19144 2.22925 5.43544 1.68711C5.78978 0.900261 6.33821 0.310402 7.2188 0.0623616C7.78054 -0.095785 8.26464 0.0679106 8.7005 0.342031C9.52897 0.862528 10.1539 1.56059 10.5232 2.50392C10.7667 3.12541 10.8293 3.7408 10.7972 4.3867C10.8255 4.39058 10.8537 4.39391 10.882 4.3978H10.8815Z" fill="#09ACFB"/>
<path d="M5.36656 10.2627C5.45029 10.786 5.32109 11.2627 5.08264 11.7227C4.82645 12.2165 4.16434 12.5245 3.62811 12.3897C2.85676 12.1949 2.18356 11.8292 1.63957 11.2455C1.25196 10.8293 0.851033 10.4209 0.508888 9.96919C0.174508 9.52694 -0.00959577 9.00311 0.000385749 8.43711C0.00870368 7.99874 -0.00183236 7.54982 0.0880013 7.12533C0.239388 6.41339 1.14216 5.76693 1.85417 5.74251C2.96046 5.70423 3.70186 6.28354 4.3429 7.0998C4.771 7.64471 5.04604 8.25455 5.21406 8.911C5.32663 9.34992 5.36379 9.80771 5.43477 10.2572C5.41148 10.2594 5.38874 10.2611 5.36545 10.2633L5.36656 10.2627Z" fill="#09ACFB"/>
<path d="M18.5941 10.2238C18.5215 9.37864 18.6984 8.57181 19.0838 7.83269C19.5324 6.97204 20.1801 6.28951 21.0995 5.89275C21.7616 5.60698 22.9217 5.67856 23.3958 6.37219C23.8355 7.01532 24.0884 7.69174 23.9719 8.46139C23.8782 9.07844 23.6775 9.67163 23.2743 10.1683C22.9971 10.5101 22.7309 10.8685 22.4093 11.1649C21.766 11.7575 21.054 12.2663 20.1767 12.4406C19.9488 12.4861 19.6422 12.4184 19.447 12.2891C18.9202 11.9406 18.5791 11.4506 18.5941 10.777C18.5986 10.5928 18.5947 10.408 18.5947 10.2232L18.5941 10.2238Z" fill="#09ACFB"/>
</g>
<defs>
<clipPath id="clip0_316_12167">
<rect width="24" height="24" fill="white" transform="translate(0 0.000488281)"/>
</clipPath>
</defs>
</svg>
