<svg width="44" height="44" viewBox="0 0 44 44" fill="none" xmlns="http://www.w3.org/2000/svg">
<rect width="44" height="44" rx="22" fill="#F4F6F8"/>
<path fill-rule="evenodd" clip-rule="evenodd" d="M22.5219 15.1622C23.365 14.3478 24.4944 13.8972 25.6666 13.9074C26.8388 13.9176 27.9601 14.3878 28.789 15.2167C29.6179 16.0456 30.0881 17.1669 30.0983 18.3391C30.1085 19.5113 29.6578 20.6406 28.8435 21.4838L28.8338 21.4938L26.6314 23.696C26.6313 23.6961 26.6314 23.696 26.6314 23.696C26.1782 24.1494 25.6327 24.5001 25.0321 24.7241C24.4314 24.9482 23.7896 25.0404 23.1502 24.9946C22.5107 24.9488 21.8886 24.7661 21.326 24.4587C20.7634 24.1513 20.2735 23.7266 19.8895 23.2132C19.6249 22.8594 19.6972 22.3581 20.051 22.0934C20.4048 21.8288 20.9061 21.901 21.1708 22.2548C21.4173 22.5845 21.7319 22.8572 22.0932 23.0546C22.4544 23.252 22.8539 23.3693 23.2645 23.3987C23.6751 23.4281 24.0872 23.3689 24.4729 23.225C24.8585 23.0812 25.2088 22.856 25.4998 22.5649L27.6971 20.3676C28.2172 19.8267 28.5049 19.1035 28.4983 18.353C28.4918 17.6003 28.1899 16.8803 27.6576 16.348C27.1254 15.8158 26.4054 15.5139 25.6527 15.5073C24.9018 15.5008 24.1783 15.7888 23.6373 16.3093L22.3789 17.5604C22.0656 17.8719 21.5591 17.8704 21.2476 17.5571C20.9361 17.2437 20.9375 16.7372 21.2509 16.4257L22.5219 15.1622ZM18.9648 19.2757C19.5655 19.0516 20.2073 18.9593 20.8467 19.0051C21.4861 19.0509 22.1083 19.2337 22.6708 19.5411C23.2334 19.8484 23.7233 20.2732 24.1073 20.7866C24.372 21.1404 24.2997 21.6417 23.9459 21.9064C23.5921 22.171 23.0908 22.0987 22.8261 21.7449C22.5795 21.4153 22.265 21.1425 21.9037 20.9452C21.5425 20.7478 21.143 20.6304 20.7324 20.601C20.3218 20.5716 19.9097 20.6309 19.524 20.7747C19.1383 20.9186 18.7881 21.1438 18.4971 21.4349L16.2997 23.6322C15.7797 24.1731 15.492 24.8963 15.4985 25.6468C15.5051 26.3995 15.807 27.1195 16.3393 27.6517C16.8715 28.184 17.5915 28.4859 18.3442 28.4924C19.0947 28.499 19.8179 28.2113 20.3588 27.6912L21.6089 26.4411C21.9214 26.1286 22.4279 26.1286 22.7403 26.4411C23.0527 26.7535 23.0527 27.26 22.7403 27.5724L21.4751 28.8376C20.6319 29.652 19.5025 30.1026 18.3303 30.0924C17.1581 30.0822 16.0368 29.612 15.2079 28.7831C14.379 27.9542 13.9088 26.8329 13.8986 25.6607C13.8884 24.4885 14.339 23.3592 15.1534 22.516L15.1631 22.506L17.3655 20.3037C17.3655 20.3038 17.3655 20.3037 17.3655 20.3037C17.8187 19.8504 18.3642 19.4997 18.9648 19.2757Z" fill="#030712"/>
</svg>
